{
	"patcher" : 	{
		"fileversion" : 1,
		"appversion" : 		{
			"major" : 8,
			"minor" : 1,
			"revision" : 7,
			"architecture" : "x64",
			"modernui" : 1
		}
,
		"classnamespace" : "box",
		"rect" : [ 259.0, 127.0, 787.0, 645.0 ],
		"bglocked" : 0,
		"openinpresentation" : 0,
		"default_fontsize" : 12.0,
		"default_fontface" : 0,
		"default_fontname" : "Arial",
		"gridonopen" : 1,
		"gridsize" : [ 15.0, 15.0 ],
		"gridsnaponopen" : 1,
		"objectsnaponopen" : 1,
		"statusbarvisible" : 2,
		"toolbarvisible" : 1,
		"lefttoolbarpinned" : 0,
		"toptoolbarpinned" : 0,
		"righttoolbarpinned" : 0,
		"bottomtoolbarpinned" : 0,
		"toolbars_unpinned_last_save" : 0,
		"tallnewobj" : 0,
		"boxanimatetime" : 200,
		"enablehscroll" : 1,
		"enablevscroll" : 1,
		"devicewidth" : 0.0,
		"description" : "",
		"digest" : "",
		"tags" : "",
		"style" : "",
		"subpatcher_template" : "",
		"assistshowspatchername" : 0,
		"boxes" : [ 			{
				"box" : 				{
					"id" : "obj-5",
					"maxclass" : "newobj",
					"numinlets" : 2,
					"numoutlets" : 1,
					"outlettype" : [ "int" ],
					"patching_rect" : [ 171.723577439785004, 506.214683532714844, 29.5, 22.0 ],
					"text" : "- 1"
				}

			}
, 			{
				"box" : 				{
					"id" : "obj-61",
					"maxclass" : "message",
					"numinlets" : 2,
					"numoutlets" : 1,
					"outlettype" : [ "" ],
					"patching_rect" : [ 424.096016283035283, 506.214683532714844, 29.5, 22.0 ],
					"text" : "1"
				}

			}
, 			{
				"box" : 				{
					"id" : "obj-59",
					"maxclass" : "comment",
					"numinlets" : 1,
					"numoutlets" : 0,
					"patching_rect" : [ 221.723577439785004, 520.502441167831421, 93.0, 20.0 ],
					"presentation" : 1,
					"presentation_rect" : [ 167.40814506395327, 253.551003909809992, 93.0, 20.0 ],
					"text" : "Current Ctrl No "
				}

			}
, 			{
				"box" : 				{
					"id" : "obj-58",
					"ignoreclick" : 1,
					"maxclass" : "live.numbox",
					"numinlets" : 1,
					"numoutlets" : 2,
					"outlettype" : [ "", "float" ],
					"parameter_enable" : 1,
					"patching_rect" : [ 171.723577439785004, 534.177234649658203, 44.0, 15.0 ],
					"presentation" : 1,
					"presentation_rect" : [ 259.979249054031243, 256.051003909809992, 33.0, 15.0 ],
					"saved_attribute_attributes" : 					{
						"valueof" : 						{
							"parameter_longname" : "live.numbox[8]",
							"parameter_shortname" : "live.numbox",
							"parameter_type" : 0,
							"parameter_unitstyle" : 0
						}

					}
,
					"varname" : "live.numbox[4]"
				}

			}
, 			{
				"box" : 				{
					"id" : "obj-57",
					"maxclass" : "message",
					"numinlets" : 2,
					"numoutlets" : 1,
					"outlettype" : [ "" ],
					"patching_rect" : [ 298.4000044465065, 428.80000638961792, 29.5, 22.0 ],
					"text" : "100"
				}

			}
, 			{
				"box" : 				{
					"id" : "obj-54",
					"maxclass" : "comment",
					"numinlets" : 1,
					"numoutlets" : 0,
					"patching_rect" : [ 244.600000023841858, 458.400006830692291, 83.300004422664642, 20.0 ],
					"presentation" : 1,
					"presentation_rect" : [ 167.40814506395327, 235.335556841595547, 83.300004422664642, 20.0 ],
					"text" : "Ctrl No Start"
				}

			}
, 			{
				"box" : 				{
					"id" : "obj-52",
					"maxclass" : "live.numbox",
					"numinlets" : 1,
					"numoutlets" : 2,
					"outlettype" : [ "", "float" ],
					"parameter_enable" : 1,
					"patching_rect" : [ 191.723577439785004, 454.102440178394318, 44.0, 15.0 ],
					"presentation" : 1,
					"presentation_rect" : [ 259.979249054031243, 235.335556841595547, 33.0, 15.0 ],
					"saved_attribute_attributes" : 					{
						"valueof" : 						{
							"parameter_longname" : "live.numbox[7]",
							"parameter_shortname" : "live.numbox",
							"parameter_type" : 0,
							"parameter_unitstyle" : 0
						}

					}
,
					"varname" : "live.numbox[3]"
				}

			}
, 			{
				"box" : 				{
					"id" : "obj-47",
					"maxclass" : "message",
					"numinlets" : 2,
					"numoutlets" : 1,
					"outlettype" : [ "" ],
					"patching_rect" : [ 298.4000044465065, 398.40000593662262, 29.5, 22.0 ],
					"text" : "4"
				}

			}
, 			{
				"box" : 				{
					"id" : "obj-44",
					"maxclass" : "newobj",
					"numinlets" : 1,
					"numoutlets" : 1,
					"outlettype" : [ "bang" ],
					"patching_rect" : [ 298.4000044465065, 367.200000023841881, 58.0, 22.0 ],
					"text" : "loadbang"
				}

			}
, 			{
				"box" : 				{
					"id" : "obj-43",
					"maxclass" : "live.numbox",
					"numinlets" : 1,
					"numoutlets" : 2,
					"outlettype" : [ "", "float" ],
					"parameter_enable" : 1,
					"patching_rect" : [ 221.723577439785004, 359.402438759803772, 44.0, 15.0 ],
					"presentation" : 1,
					"presentation_rect" : [ 259.979249054031243, 217.835556841595547, 33.0, 15.0 ],
					"saved_attribute_attributes" : 					{
						"valueof" : 						{
							"parameter_longname" : "live.numbox[2]",
							"parameter_shortname" : "live.numbox[1]",
							"parameter_type" : 0,
							"parameter_unitstyle" : 0
						}

					}
,
					"varname" : "live.numbox[2]"
				}

			}
, 			{
				"box" : 				{
					"id" : "obj-38",
					"maxclass" : "newobj",
					"numinlets" : 2,
					"numoutlets" : 1,
					"outlettype" : [ "int" ],
					"patching_rect" : [ 171.723577439785004, 477.587153651714289, 39.0, 22.0 ],
					"text" : "+ 100"
				}

			}
, 			{
				"box" : 				{
					"id" : "obj-37",
					"maxclass" : "comment",
					"numinlets" : 1,
					"numoutlets" : 0,
					"patching_rect" : [ 190.923579156398773, 337.200005352497101, 88.955284595489502, 20.0 ],
					"presentation" : 1,
					"presentation_rect" : [ 167.40814506395327, 215.835556841595547, 72.571103990077972, 20.0 ],
					"text" : "Click Loop"
				}

			}
, 			{
				"box" : 				{
					"id" : "obj-56",
					"maxclass" : "live.numbox",
					"numinlets" : 1,
					"numoutlets" : 2,
					"outlettype" : [ "", "float" ],
					"parameter_enable" : 1,
					"patching_rect" : [ 424.096016283035283, 534.177234649658203, 44.0, 15.0 ],
					"presentation" : 1,
					"presentation_rect" : [ 408.942436271743645, 256.051003909809992, 33.0, 15.0 ],
					"saved_attribute_attributes" : 					{
						"valueof" : 						{
							"parameter_longname" : "live.numbox[6]",
							"parameter_mmax" : 16.0,
							"parameter_shortname" : "live.numbox[1]",
							"parameter_type" : 0,
							"parameter_unitstyle" : 0
						}

					}
,
					"varname" : "live.numbox[6]"
				}

			}
, 			{
				"box" : 				{
					"activebgcolor" : [ 0.0, 0.0, 0.0, 1.0 ],
					"activebgoncolor" : [ 1.0, 0.427450980392157, 0.631372549019608, 1.0 ],
					"bgcolor" : [ 0.0, 0.0, 0.0, 1.0 ],
					"id" : "obj-40",
					"maxclass" : "live.button",
					"numinlets" : 1,
					"numoutlets" : 1,
					"outlettype" : [ "" ],
					"parameter_enable" : 1,
					"patching_rect" : [ 255.304352700710297, 228.391309022903442, 47.0, 46.0 ],
					"presentation" : 1,
					"presentation_rect" : [ 167.40814506395327, 178.588600989087013, 13.624526018132514, 12.810038566589355 ],
					"saved_attribute_attributes" : 					{
						"valueof" : 						{
							"parameter_enum" : [ "off", "on" ],
							"parameter_longname" : "live.button",
							"parameter_mmax" : 1,
							"parameter_shortname" : "live.button",
							"parameter_type" : 2
						}

					}
,
					"varname" : "live.button"
				}

			}
, 			{
				"box" : 				{
					"fontname" : "Helvetica",
					"fontsize" : 12.37664783000946,
					"id" : "obj-48",
					"maxclass" : "comment",
					"numinlets" : 1,
					"numoutlets" : 0,
					"patching_rect" : [ 404.643466055393219, 584.07284460783012, 166.0, 19.0 ],
					"presentation" : 1,
					"presentation_rect" : [ 187.681108019488136, 192.613485478162772, 109.775486776828359, 19.0 ],
					"text" : "MIDI Out Device"
				}

			}
, 			{
				"box" : 				{
					"fontsize" : 12.338983047008515,
					"id" : "obj-45",
					"maxclass" : "comment",
					"numinlets" : 1,
					"numoutlets" : 0,
					"patching_rect" : [ 449.043466031551361, 359.402438759803772, 155.0, 20.0 ],
					"presentation" : 1,
					"presentation_rect" : [ 300.507652038173546, 233.835556841595547, 72.871532981232008, 20.0 ],
					"text" : "MIDI Value"
				}

			}
, 			{
				"box" : 				{
					"id" : "obj-42",
					"maxclass" : "live.numbox",
					"numinlets" : 1,
					"numoutlets" : 2,
					"outlettype" : [ "", "float" ],
					"parameter_enable" : 1,
					"patching_rect" : [ 403.043466031551361, 359.402438759803772, 44.0, 15.0 ],
					"presentation" : 1,
					"presentation_rect" : [ 408.942436271743645, 236.335556841595547, 33.0, 15.0 ],
					"saved_attribute_attributes" : 					{
						"valueof" : 						{
							"parameter_longname" : "live.numbox[1]",
							"parameter_shortname" : "live.numbox[1]",
							"parameter_type" : 0,
							"parameter_unitstyle" : 0
						}

					}
,
					"varname" : "live.numbox[1]"
				}

			}
, 			{
				"box" : 				{
					"id" : "obj-39",
					"ignoreclick" : 1,
					"maxclass" : "live.numbox",
					"numinlets" : 1,
					"numoutlets" : 2,
					"outlettype" : [ "", "float" ],
					"parameter_enable" : 1,
					"patching_rect" : [ 235.878863751888275, 422.102439701557159, 44.0, 15.0 ],
					"presentation" : 1,
					"presentation_rect" : [ 408.942436271743645, 217.835556841595547, 33.0, 15.0 ],
					"saved_attribute_attributes" : 					{
						"valueof" : 						{
							"parameter_longname" : "live.numbox",
							"parameter_shortname" : "live.numbox",
							"parameter_type" : 0,
							"parameter_unitstyle" : 0
						}

					}
,
					"varname" : "live.numbox"
				}

			}
, 			{
				"box" : 				{
					"fontname" : "Helvetica",
					"fontsize" : 12.37664783000946,
					"id" : "obj-129",
					"maxclass" : "comment",
					"numinlets" : 1,
					"numoutlets" : 0,
					"patching_rect" : [ 512.632520079612732, 532.177234649658203, 167.0, 19.0 ],
					"presentation" : 1,
					"presentation_rect" : [ 300.507652038173546, 253.551003909809992, 109.775486776828359, 19.0 ],
					"text" : "MIDI Out Channel"
				}

			}
, 			{
				"box" : 				{
					"id" : "obj-8",
					"maxclass" : "newobj",
					"numinlets" : 1,
					"numoutlets" : 3,
					"outlettype" : [ "int", "int", "int" ],
					"patching_rect" : [ 171.723577439785004, 154.0, 41.0, 22.0 ],
					"text" : "notein"
				}

			}
, 			{
				"box" : 				{
					"id" : "obj-4",
					"maxclass" : "newobj",
					"numinlets" : 1,
					"numoutlets" : 3,
					"outlettype" : [ "int", "int", "int" ],
					"patching_rect" : [ 340.5, 224.199512164592733, 40.0, 22.0 ],
					"text" : "ctlin"
				}

			}
, 			{
				"box" : 				{
					"fontname" : "Helvetica",
					"fontsize" : 12.37664783000946,
					"id" : "obj-225",
					"maxclass" : "comment",
					"numinlets" : 1,
					"numoutlets" : 0,
					"patching_rect" : [ 57.678862035274506, 415.102439701557159, 107.0, 19.0 ],
					"presentation" : 1,
					"presentation_rect" : [ 300.507652038173546, 215.835556841595547, 73.093973555647892, 19.0 ],
					"text" : "Click Count"
				}

			}
, 			{
				"box" : 				{
					"id" : "obj-223",
					"maxclass" : "number",
					"minimum" : 1,
					"numinlets" : 1,
					"numoutlets" : 2,
					"outlettype" : [ "", "bang" ],
					"parameter_enable" : 0,
					"patching_rect" : [ 171.723577439785004, 415.102439701557159, 50.0, 22.0 ]
				}

			}
, 			{
				"box" : 				{
					"fontname" : "Helvetica",
					"fontsize" : 12.37664783000946,
					"id" : "obj-143",
					"maxclass" : "comment",
					"numinlets" : 1,
					"numoutlets" : 0,
					"patching_rect" : [ 262.390243768692017, 122.922764182090759, 168.0, 19.0 ],
					"presentation" : 1,
					"presentation_rect" : [ 187.681108019488136, 172.398639555676368, 97.084938840593722, 19.0 ],
					"text" : "MIDI In Device"
				}

			}
, 			{
				"box" : 				{
					"fontname" : "Arial",
					"fontsize" : 13.0,
					"id" : "obj-21",
					"maxclass" : "newobj",
					"numinlets" : 2,
					"numoutlets" : 1,
					"outlettype" : [ "" ],
					"patching_rect" : [ 106.284553050994873, 86.292682886123657, 55.0, 23.0 ],
					"text" : "midiinfo"
				}

			}
, 			{
				"box" : 				{
					"fontface" : 0,
					"fontname" : "Arial",
					"fontsize" : 13.0,
					"id" : "obj-22",
					"items" : [ "Network Session 1", ",", "IAC Driver Bus 1", ",", "to Max 1", ",", "to Max 2" ],
					"maxclass" : "umenu",
					"numinlets" : 1,
					"numoutlets" : 3,
					"outlettype" : [ "int", "", "" ],
					"parameter_enable" : 0,
					"patching_rect" : [ 106.223577439785004, 121.422764182090759, 150.0, 23.0 ],
					"presentation" : 1,
					"presentation_rect" : [ 288.790790853175281, 170.398639555676368, 133.209209146824776, 23.0 ]
				}

			}
, 			{
				"box" : 				{
					"id" : "obj-131",
					"maxclass" : "newobj",
					"numinlets" : 2,
					"numoutlets" : 2,
					"outlettype" : [ "bang", "" ],
					"patching_rect" : [ 171.723577439785004, 194.715447068214417, 47.0, 22.0 ],
					"text" : "sel 100"
				}

			}
, 			{
				"box" : 				{
					"id" : "obj-105",
					"maxclass" : "newobj",
					"numinlets" : 1,
					"numoutlets" : 1,
					"outlettype" : [ "" ],
					"patching_rect" : [ 424.096016283035283, 477.587153651714289, 60.0, 22.0 ],
					"text" : "loadmess"
				}

			}
, 			{
				"box" : 				{
					"fontsize" : 12.308166406371377,
					"id" : "obj-104",
					"maxclass" : "newobj",
					"numinlets" : 3,
					"numoutlets" : 0,
					"patching_rect" : [ 352.600000023841858, 584.07284460783012, 42.0, 22.0 ],
					"presentation" : 1,
					"presentation_rect" : [ 288.790790853175281, 189.613485478162772, 44.783089551058708, 22.0 ],
					"text" : "ctlout"
				}

			}
, 			{
				"box" : 				{
					"id" : "obj-103",
					"maxclass" : "live.dial",
					"numinlets" : 1,
					"numoutlets" : 2,
					"outlettype" : [ "", "float" ],
					"parameter_enable" : 1,
					"patching_rect" : [ 351.0, 302.800813019275665, 41.0, 48.0 ],
					"saved_attribute_attributes" : 					{
						"valueof" : 						{
							"parameter_longname" : "live.dial",
							"parameter_shortname" : "Value",
							"parameter_type" : 0,
							"parameter_unitstyle" : 0
						}

					}
,
					"varname" : "live.dial"
				}

			}
, 			{
				"box" : 				{
					"id" : "obj-99",
					"maxclass" : "newobj",
					"numinlets" : 2,
					"numoutlets" : 1,
					"outlettype" : [ "bang" ],
					"patching_rect" : [ 171.723577439785004, 278.335528423786172, 54.0, 22.0 ],
					"text" : "delay 10"
				}

			}
, 			{
				"box" : 				{
					"id" : "obj-1",
					"maxclass" : "newobj",
					"numinlets" : 5,
					"numoutlets" : 4,
					"outlettype" : [ "int", "", "", "int" ],
					"patching_rect" : [ 171.723577439785004, 379.000813961029053, 69.0, 22.0 ],
					"text" : "counter 1 4"
				}

			}
, 			{
				"box" : 				{
					"id" : "obj-3",
					"maxclass" : "button",
					"numinlets" : 1,
					"numoutlets" : 1,
					"outlettype" : [ "bang" ],
					"parameter_enable" : 0,
					"patching_rect" : [ 171.723577439785004, 228.292682886123657, 24.0, 24.0 ]
				}

			}
, 			{
				"box" : 				{
					"angle" : 270.0,
					"bgcolor" : [ 0.917647058823529, 1.0, 0.286274509803922, 1.0 ],
					"bordercolor" : [ 1.0, 0.874509803921569, 0.109803921568627, 1.0 ],
					"id" : "obj-154",
					"maxclass" : "panel",
					"mode" : 0,
					"numinlets" : 1,
					"numoutlets" : 0,
					"patching_rect" : [ 891.582357583045905, 557.040650069713593, 34.504065096378326, 38.569105744361877 ],
					"presentation" : 1,
					"presentation_rect" : [ 158.169217074122969, 164.531264965041089, 293.290382263043227, 118.863256683842735 ],
					"proportion" : 0.5
				}

			}
 ],
		"lines" : [ 			{
				"patchline" : 				{
					"destination" : [ "obj-223", 0 ],
					"order" : 1,
					"source" : [ "obj-1", 0 ]
				}

			}
, 			{
				"patchline" : 				{
					"destination" : [ "obj-39", 0 ],
					"midpoints" : [ 181.223577439785004, 411.051626831293106, 245.378863751888275, 411.051626831293106 ],
					"order" : 0,
					"source" : [ "obj-1", 0 ]
				}

			}
, 			{
				"patchline" : 				{
					"destination" : [ "obj-104", 0 ],
					"midpoints" : [ 360.5, 494.136829218864477, 362.100000023841858, 494.136829218864477 ],
					"order" : 1,
					"source" : [ "obj-103", 0 ]
				}

			}
, 			{
				"patchline" : 				{
					"destination" : [ "obj-42", 0 ],
					"midpoints" : [ 360.5, 354.601625889539719, 412.543466031551361, 354.601625889539719 ],
					"order" : 0,
					"source" : [ "obj-103", 0 ]
				}

			}
, 			{
				"patchline" : 				{
					"destination" : [ "obj-61", 0 ],
					"source" : [ "obj-105", 0 ]
				}

			}
, 			{
				"patchline" : 				{
					"destination" : [ "obj-3", 0 ],
					"source" : [ "obj-131", 0 ]
				}

			}
, 			{
				"patchline" : 				{
					"destination" : [ "obj-22", 0 ],
					"source" : [ "obj-21", 0 ]
				}

			}
, 			{
				"patchline" : 				{
					"destination" : [ "obj-4", 0 ],
					"midpoints" : [ 181.223577439785004, 152.81113817334176, 350.0, 152.81113817334176 ],
					"order" : 0,
					"source" : [ "obj-22", 1 ]
				}

			}
, 			{
				"patchline" : 				{
					"destination" : [ "obj-8", 0 ],
					"order" : 1,
					"source" : [ "obj-22", 1 ]
				}

			}
, 			{
				"patchline" : 				{
					"destination" : [ "obj-38", 0 ],
					"source" : [ "obj-223", 0 ]
				}

			}
, 			{
				"patchline" : 				{
					"destination" : [ "obj-99", 0 ],
					"source" : [ "obj-3", 0 ]
				}

			}
, 			{
				"patchline" : 				{
					"destination" : [ "obj-5", 0 ],
					"source" : [ "obj-38", 0 ]
				}

			}
, 			{
				"patchline" : 				{
					"destination" : [ "obj-103", 0 ],
					"source" : [ "obj-4", 0 ]
				}

			}
, 			{
				"patchline" : 				{
					"destination" : [ "obj-3", 0 ],
					"midpoints" : [ 264.804352700710297, 284.391309022903442, 223.01396507024765, 284.391309022903442, 223.01396507024765, 217.292682886123657, 181.223577439785004, 217.292682886123657 ],
					"source" : [ "obj-40", 0 ]
				}

			}
, 			{
				"patchline" : 				{
					"destination" : [ "obj-1", 4 ],
					"source" : [ "obj-43", 0 ]
				}

			}
, 			{
				"patchline" : 				{
					"destination" : [ "obj-47", 0 ],
					"source" : [ "obj-44", 0 ]
				}

			}
, 			{
				"patchline" : 				{
					"destination" : [ "obj-43", 0 ],
					"midpoints" : [ 307.9000044465065, 430.40000593662262, 269.561790943145752, 430.40000593662262, 269.561790943145752, 348.402438759803772, 231.223577439785004, 348.402438759803772 ],
					"order" : 1,
					"source" : [ "obj-47", 0 ]
				}

			}
, 			{
				"patchline" : 				{
					"destination" : [ "obj-57", 0 ],
					"order" : 0,
					"source" : [ "obj-47", 0 ]
				}

			}
, 			{
				"patchline" : 				{
					"destination" : [ "obj-58", 0 ],
					"source" : [ "obj-5", 0 ]
				}

			}
, 			{
				"patchline" : 				{
					"destination" : [ "obj-38", 1 ],
					"source" : [ "obj-52", 0 ]
				}

			}
, 			{
				"patchline" : 				{
					"destination" : [ "obj-104", 2 ],
					"midpoints" : [ 433.596016283035283, 556.683805963993109, 385.100000023841858, 556.683805963993109 ],
					"source" : [ "obj-56", 0 ]
				}

			}
, 			{
				"patchline" : 				{
					"destination" : [ "obj-52", 0 ],
					"midpoints" : [ 307.9000044465065, 451.951223284006119, 201.223577439785004, 451.951223284006119 ],
					"source" : [ "obj-57", 0 ]
				}

			}
, 			{
				"patchline" : 				{
					"destination" : [ "obj-104", 1 ],
					"midpoints" : [ 181.223577439785004, 559.287642887830771, 373.600000023841858, 559.287642887830771 ],
					"source" : [ "obj-58", 0 ]
				}

			}
, 			{
				"patchline" : 				{
					"destination" : [ "obj-56", 0 ],
					"source" : [ "obj-61", 0 ]
				}

			}
, 			{
				"patchline" : 				{
					"destination" : [ "obj-131", 0 ],
					"source" : [ "obj-8", 1 ]
				}

			}
, 			{
				"patchline" : 				{
					"destination" : [ "obj-1", 0 ],
					"midpoints" : [ 181.223577439785004, 309.159634048938756, 181.223577439785004, 309.159634048938756 ],
					"source" : [ "obj-99", 0 ]
				}

			}
 ],
		"parameters" : 		{
			"obj-103" : [ "live.dial", "Value", 0 ],
			"obj-39" : [ "live.numbox", "live.numbox", 0 ],
			"obj-40" : [ "live.button", "live.button", 0 ],
			"obj-42" : [ "live.numbox[1]", "live.numbox[1]", 0 ],
			"obj-43" : [ "live.numbox[2]", "live.numbox[1]", 0 ],
			"obj-52" : [ "live.numbox[7]", "live.numbox", 0 ],
			"obj-56" : [ "live.numbox[6]", "live.numbox[1]", 0 ],
			"obj-58" : [ "live.numbox[8]", "live.numbox", 0 ],
			"parameterbanks" : 			{

			}
,
			"inherited_shortname" : 1
		}
,
		"dependency_cache" : [  ],
		"autosave" : 0
	}

}
